<svg xmlns="http://www.w3.org/2000/svg" width="680" height="296" viewBox="0 0 680 296" role="img" aria-label="WPT selected reference assertions: 37 pass, 1 fail, 0 runner errors">
<rect width="100%" height="100%" fill="white"/>
<text x="16" y="27" font-family="sans-serif" font-size="18">Pinned WPT: 37/38 passing</text>
<text x="16" y="53" font-family="sans-serif" font-size="13">Green: pass   Red: compatibility failure   Gray: runner error</text>
<text x="16" y="89" font-family="sans-serif" font-size="13">Initial baseline</text>
<rect x="180" y="76" width="325" height="20" fill="#21864b"/>
<text x="513" y="91" font-family="sans-serif" font-size="13">13 / 13</text>
<text x="16" y="123" font-family="sans-serif" font-size="13">Box direction</text>
<rect x="180" y="110" width="100" height="20" fill="#21864b"/>
<text x="288" y="125" font-family="sans-serif" font-size="13">4 / 4</text>
<text x="16" y="157" font-family="sans-serif" font-size="13">Margins</text>
<rect x="180" y="144" width="100" height="20" fill="#21864b"/>
<text x="288" y="159" font-family="sans-serif" font-size="13">4 / 4</text>
<text x="16" y="191" font-family="sans-serif" font-size="13">Positioning</text>
<rect x="180" y="178" width="125" height="20" fill="#21864b"/>
<rect x="305" y="178" width="25" height="20" fill="#bd3636"/>
<text x="338" y="193" font-family="sans-serif" font-size="13">5 / 6</text>
<text x="16" y="225" font-family="sans-serif" font-size="13">Tables</text>
<rect x="180" y="212" width="150" height="20" fill="#21864b"/>
<text x="338" y="227" font-family="sans-serif" font-size="13">6 / 6</text>
<text x="16" y="259" font-family="sans-serif" font-size="13">Colors</text>
<rect x="180" y="246" width="125" height="20" fill="#21864b"/>
<text x="313" y="261" font-family="sans-serif" font-size="13">5 / 5</text>
</svg>
